<mxfile host="app.diagrams.net" modified="2021-03-23T06:31:58.818Z" agent="5.0 (Macintosh)" etag="n27hKjmUY4UAivWVteyp" version="14.5.0" type="github">
  <diagram id="9IMghsSp_HW23RW7wn-J" name="Page-1">
    <mxGraphModel dx="1709" dy="1102" grid="1" gridSize="10" guides="1" tooltips="1" connect="1" arrows="1" fold="1" page="1" pageScale="1" pageWidth="850" pageHeight="1100" math="0" shadow="0">
      <root>
        <mxCell id="0" />
        <mxCell id="1" parent="0" />
        <mxCell id="KhhMZYQ1L5fq1iBN_DM4-1" value="&lt;div style=&quot;font-size: 19px;&quot;&gt;Classical&lt;/div&gt;&lt;div style=&quot;font-size: 19px;&quot;&gt;Mechanics&lt;br style=&quot;font-size: 19px;&quot;&gt;&lt;/div&gt;" style="rounded=1;whiteSpace=wrap;html=1;fillColor=#f5f5f5;strokeColor=#666666;fontStyle=1;fontSize=19;gradientColor=#b3b3b3;" vertex="1" parent="1">
          <mxGeometry x="241" y="441" width="120" height="60" as="geometry" />
        </mxCell>
        <mxCell id="KhhMZYQ1L5fq1iBN_DM4-2" value="&lt;div style=&quot;font-size: 19px&quot;&gt;Quantum&lt;/div&gt;&lt;div style=&quot;font-size: 19px&quot;&gt;Mechanics&lt;br style=&quot;font-size: 19px&quot;&gt;&lt;/div&gt;" style="rounded=1;whiteSpace=wrap;html=1;fillColor=#e6d0de;strokeColor=#996185;fontStyle=1;fontSize=19;gradientColor=#F571EC;" vertex="1" parent="1">
          <mxGeometry x="241" y="519" width="120" height="60" as="geometry" />
        </mxCell>
        <mxCell id="KhhMZYQ1L5fq1iBN_DM4-3" value="&lt;div style=&quot;font-size: 19px&quot;&gt;Relativistic&lt;/div&gt;&lt;div style=&quot;font-size: 19px&quot;&gt;Mechanics&lt;br style=&quot;font-size: 19px&quot;&gt;&lt;/div&gt;" style="rounded=1;whiteSpace=wrap;html=1;fillColor=#dae8fc;strokeColor=#6c8ebf;fontStyle=1;fontSize=19;gradientColor=#7ea6e0;" vertex="1" parent="1">
          <mxGeometry x="380" y="441" width="120" height="60" as="geometry" />
        </mxCell>
        <mxCell id="KhhMZYQ1L5fq1iBN_DM4-4" value="&lt;div style=&quot;font-size: 19px&quot;&gt;Quantum&lt;/div&gt;&lt;div style=&quot;font-size: 19px&quot;&gt;Field Theory&lt;br style=&quot;font-size: 19px&quot;&gt;&lt;/div&gt;" style="rounded=1;whiteSpace=wrap;html=1;strokeColor=#996185;fontStyle=1;fontSize=19;fillColor=#FFFFFF;gradientColor=#AB30F2;" vertex="1" parent="1">
          <mxGeometry x="380" y="519" width="120" height="60" as="geometry" />
        </mxCell>
      </root>
    </mxGraphModel>
  </diagram>
</mxfile>
